G04 #@! TF.GenerationSoftware,KiCad,Pcbnew,(5.1.7)-1*
G04 #@! TF.CreationDate,2020-12-09T20:39:25+01:00*
G04 #@! TF.ProjectId,Stepper Servo,53746570-7065-4722-9053-6572766f2e6b,v1.0*
G04 #@! TF.SameCoordinates,Original*
G04 #@! TF.FileFunction,Copper,L4,Bot*
G04 #@! TF.FilePolarity,Positive*
%FSLAX46Y46*%
G04 Gerber Fmt 4.6, Leading zero omitted, Abs format (unit mm)*
G04 Created by KiCad (PCBNEW (5.1.7)-1) date 2020-12-09 20:39:25*
%MOMM*%
%LPD*%
G01*
G04 APERTURE LIST*
G04 #@! TA.AperFunction,ComponentPad*
%ADD10O,1.250000X1.050000*%
G04 #@! TD*
G04 #@! TA.AperFunction,ComponentPad*
%ADD11O,1.900000X1.000000*%
G04 #@! TD*
G04 #@! TA.AperFunction,ComponentPad*
%ADD12C,0.800000*%
G04 #@! TD*
G04 #@! TA.AperFunction,ComponentPad*
%ADD13C,6.400000*%
G04 #@! TD*
G04 #@! TA.AperFunction,SMDPad,CuDef*
%ADD14R,1.450000X0.450000*%
G04 #@! TD*
G04 #@! TA.AperFunction,ComponentPad*
%ADD15R,1.700000X1.700000*%
G04 #@! TD*
G04 #@! TA.AperFunction,ComponentPad*
%ADD16O,1.700000X1.700000*%
G04 #@! TD*
G04 #@! TA.AperFunction,ComponentPad*
%ADD17R,2.300000X2.300000*%
G04 #@! TD*
G04 #@! TA.AperFunction,ComponentPad*
%ADD18C,2.300000*%
G04 #@! TD*
G04 #@! TA.AperFunction,ComponentPad*
%ADD19O,1.950000X1.700000*%
G04 #@! TD*
G04 #@! TA.AperFunction,ViaPad*
%ADD20C,0.450000*%
G04 #@! TD*
G04 #@! TA.AperFunction,ViaPad*
%ADD21C,0.800000*%
G04 #@! TD*
G04 #@! TA.AperFunction,Conductor*
%ADD22C,0.300000*%
G04 #@! TD*
G04 #@! TA.AperFunction,Conductor*
%ADD23C,0.250000*%
G04 #@! TD*
G04 #@! TA.AperFunction,Conductor*
%ADD24C,0.200000*%
G04 #@! TD*
G04 APERTURE END LIST*
D10*
X206200000Y-81425000D03*
X206200000Y-76975000D03*
D11*
X209200000Y-83375000D03*
X209200000Y-75025000D03*
D12*
X175897056Y-85802944D03*
X174200000Y-85100000D03*
X172502944Y-85802944D03*
X171800000Y-87500000D03*
X172502944Y-89197056D03*
X174200000Y-89900000D03*
X175897056Y-89197056D03*
X176600000Y-87500000D03*
D13*
X174200000Y-87500000D03*
D12*
X206897056Y-54802944D03*
X205200000Y-54100000D03*
X203502944Y-54802944D03*
X202800000Y-56500000D03*
X203502944Y-58197056D03*
X205200000Y-58900000D03*
X206897056Y-58197056D03*
X207600000Y-56500000D03*
D13*
X205200000Y-56500000D03*
D12*
X206897056Y-85802944D03*
X205200000Y-85100000D03*
X203502944Y-85802944D03*
X202800000Y-87500000D03*
X203502944Y-89197056D03*
X205200000Y-89900000D03*
X206897056Y-89197056D03*
X207600000Y-87500000D03*
D13*
X205200000Y-87500000D03*
D12*
X175897056Y-54802944D03*
X174200000Y-54100000D03*
X172502944Y-54802944D03*
X171800000Y-56500000D03*
X172502944Y-58197056D03*
X174200000Y-58900000D03*
X175897056Y-58197056D03*
X176600000Y-56500000D03*
D13*
X174200000Y-56500000D03*
G04 #@! TA.AperFunction,SMDPad,CuDef*
G36*
G01*
X183750000Y-72825000D02*
X184250000Y-72825000D01*
G75*
G02*
X184475000Y-73050000I0J-225000D01*
G01*
X184475000Y-73500000D01*
G75*
G02*
X184250000Y-73725000I-225000J0D01*
G01*
X183750000Y-73725000D01*
G75*
G02*
X183525000Y-73500000I0J225000D01*
G01*
X183525000Y-73050000D01*
G75*
G02*
X183750000Y-72825000I225000J0D01*
G01*
G37*
G04 #@! TD.AperFunction*
G04 #@! TA.AperFunction,SMDPad,CuDef*
G36*
G01*
X183750000Y-71275000D02*
X184250000Y-71275000D01*
G75*
G02*
X184475000Y-71500000I0J-225000D01*
G01*
X184475000Y-71950000D01*
G75*
G02*
X184250000Y-72175000I-225000J0D01*
G01*
X183750000Y-72175000D01*
G75*
G02*
X183525000Y-71950000I0J225000D01*
G01*
X183525000Y-71500000D01*
G75*
G02*
X183750000Y-71275000I225000J0D01*
G01*
G37*
G04 #@! TD.AperFunction*
G04 #@! TA.AperFunction,SMDPad,CuDef*
G36*
G01*
X187075000Y-75650000D02*
X187075000Y-76150000D01*
G75*
G02*
X186850000Y-76375000I-225000J0D01*
G01*
X186400000Y-76375000D01*
G75*
G02*
X186175000Y-76150000I0J225000D01*
G01*
X186175000Y-75650000D01*
G75*
G02*
X186400000Y-75425000I225000J0D01*
G01*
X186850000Y-75425000D01*
G75*
G02*
X187075000Y-75650000I0J-225000D01*
G01*
G37*
G04 #@! TD.AperFunction*
G04 #@! TA.AperFunction,SMDPad,CuDef*
G36*
G01*
X185525000Y-75650000D02*
X185525000Y-76150000D01*
G75*
G02*
X185300000Y-76375000I-225000J0D01*
G01*
X184850000Y-76375000D01*
G75*
G02*
X184625000Y-76150000I0J225000D01*
G01*
X184625000Y-75650000D01*
G75*
G02*
X184850000Y-75425000I225000J0D01*
G01*
X185300000Y-75425000D01*
G75*
G02*
X185525000Y-75650000I0J-225000D01*
G01*
G37*
G04 #@! TD.AperFunction*
D14*
X186775000Y-73950000D03*
X186775000Y-73300000D03*
X186775000Y-72650000D03*
X186775000Y-72000000D03*
X186775000Y-71350000D03*
X186775000Y-70700000D03*
X186775000Y-70050000D03*
X192625000Y-70050000D03*
X192625000Y-70700000D03*
X192625000Y-71350000D03*
X192625000Y-72000000D03*
X192625000Y-72650000D03*
X192625000Y-73300000D03*
X192625000Y-73950000D03*
D15*
X198700000Y-78400000D03*
D16*
X198700000Y-80940000D03*
X196160000Y-78400000D03*
X196160000Y-80940000D03*
X193620000Y-78400000D03*
X193620000Y-80940000D03*
D17*
X208500000Y-71600000D03*
D18*
X208500000Y-68100000D03*
X208500000Y-64600000D03*
X208500000Y-61100000D03*
D15*
X197500000Y-54900000D03*
D16*
X194960000Y-54900000D03*
X192420000Y-54900000D03*
X189880000Y-54900000D03*
X187340000Y-54900000D03*
X184800000Y-54900000D03*
X182260000Y-54900000D03*
G04 #@! TA.AperFunction,ComponentPad*
G36*
G01*
X171125000Y-79050000D02*
X169675000Y-79050000D01*
G75*
G02*
X169425000Y-78800000I0J250000D01*
G01*
X169425000Y-77600000D01*
G75*
G02*
X169675000Y-77350000I250000J0D01*
G01*
X171125000Y-77350000D01*
G75*
G02*
X171375000Y-77600000I0J-250000D01*
G01*
X171375000Y-78800000D01*
G75*
G02*
X171125000Y-79050000I-250000J0D01*
G01*
G37*
G04 #@! TD.AperFunction*
D19*
X170400000Y-75700000D03*
X170400000Y-73200000D03*
X170400000Y-70700000D03*
X170400000Y-68200000D03*
X170400000Y-65700000D03*
D20*
X179550000Y-91200000D03*
X192550000Y-91200000D03*
X199750000Y-91200000D03*
X204750000Y-75750000D03*
X205200000Y-73850000D03*
X205350000Y-66250000D03*
X194600000Y-62300000D03*
X197850000Y-63100000D03*
X199350000Y-63100000D03*
X199400000Y-67900000D03*
X198650000Y-74650000D03*
X195150000Y-68850000D03*
X192800000Y-67350000D03*
X184200000Y-70600000D03*
X193950000Y-87700000D03*
X185900000Y-87700000D03*
X177150000Y-84750000D03*
X178600000Y-74900000D03*
X179800000Y-74850000D03*
X191250000Y-62400000D03*
X191750000Y-59100000D03*
X201800000Y-60200000D03*
X189200000Y-81650000D03*
X185050000Y-74800000D03*
X189550000Y-75112298D03*
X177850000Y-72450000D03*
X195400000Y-67900000D03*
D21*
X180350000Y-78200000D03*
X179700000Y-77600000D03*
X202300000Y-77150000D03*
X201050000Y-67350000D03*
D20*
X178500000Y-70550000D03*
X194300000Y-73500000D03*
X186450000Y-66800000D03*
X174350000Y-67200000D03*
X177150000Y-66500000D03*
X180400000Y-66050000D03*
X184500000Y-65900000D03*
X195050000Y-57200000D03*
X190750000Y-57600000D03*
D21*
X179550000Y-86700000D03*
X179100000Y-85900000D03*
X179100000Y-84000000D03*
X179750000Y-83400000D03*
X179200000Y-84950000D03*
D20*
X189450000Y-69400000D03*
X184950000Y-69450000D03*
X175100000Y-74850000D03*
X180500000Y-76300000D03*
X191200000Y-78200000D03*
X188550000Y-79400000D03*
X185750000Y-83100000D03*
X185200000Y-73250000D03*
X191350000Y-67300000D03*
X174950000Y-67500000D03*
X204500000Y-77500000D03*
X201050000Y-85150000D03*
X200600000Y-87050000D03*
D21*
X176300000Y-61700000D03*
X173150000Y-61700000D03*
D20*
X183950000Y-80250000D03*
X184550000Y-80650000D03*
X185550000Y-79800000D03*
X185100000Y-80250000D03*
X188600000Y-78700000D03*
X179300000Y-70100000D03*
X180950000Y-71550000D03*
X180650000Y-71050000D03*
X181150000Y-68900000D03*
X173050000Y-66500000D03*
X181650000Y-60750000D03*
X184850000Y-66850000D03*
X179800000Y-66500000D03*
X184200000Y-74750000D03*
X198950000Y-60200000D03*
X187475000Y-79925000D03*
X201650000Y-78500000D03*
X188050000Y-80600000D03*
X201900000Y-80700000D03*
X185150000Y-89600000D03*
X182550000Y-81150000D03*
X183400000Y-81700000D03*
X187200000Y-89750000D03*
X193450000Y-91250000D03*
X184150000Y-82100000D03*
D22*
X184000000Y-71725000D02*
X184000000Y-71500000D01*
X184000000Y-71500000D02*
X184150000Y-71350000D01*
X184150000Y-71350000D02*
X186900000Y-71350000D01*
X186775000Y-70050000D02*
X186775000Y-71325000D01*
X186775000Y-71325000D02*
X186750000Y-71350000D01*
X184200000Y-70600000D02*
X184200000Y-71600000D01*
X184200000Y-71600000D02*
X184150000Y-71650000D01*
X184200000Y-70600000D02*
X186800000Y-70600000D01*
X185075000Y-74825000D02*
X185050000Y-74800000D01*
X185075000Y-75900000D02*
X185075000Y-74825000D01*
D23*
X195400000Y-67900000D02*
X195400000Y-67900000D01*
X192700000Y-67900000D02*
X195400000Y-67900000D01*
X192600000Y-68000000D02*
X192700000Y-67900000D01*
X178000000Y-68000000D02*
X192600000Y-68000000D01*
X177850000Y-68150000D02*
X178000000Y-68000000D01*
X177850000Y-71600000D02*
X177850000Y-68150000D01*
X177850000Y-71600000D02*
X177850000Y-72450000D01*
X194300000Y-73500000D02*
X194300000Y-73500000D01*
X178400000Y-70450000D02*
X178500000Y-70550000D01*
X178400000Y-68600000D02*
X178400000Y-70450000D01*
X178600000Y-68400000D02*
X178400000Y-68600000D01*
X193850000Y-68400000D02*
X178600000Y-68400000D01*
X194100000Y-68650000D02*
X193850000Y-68400000D01*
X194100000Y-73300000D02*
X194100000Y-68650000D01*
X194300000Y-73500000D02*
X194100000Y-73300000D01*
X186450000Y-66800000D02*
X196000000Y-66800000D01*
X196000000Y-66800000D02*
X196200000Y-67000000D01*
X196200000Y-67000000D02*
X196200000Y-76700000D01*
X196200000Y-76700000D02*
X195950000Y-76950000D01*
X195950000Y-76950000D02*
X193750000Y-76950000D01*
X193750000Y-76950000D02*
X193500000Y-77200000D01*
X193500000Y-77200000D02*
X193500000Y-78400000D01*
D22*
X184000000Y-73275000D02*
X186925000Y-73275000D01*
X186725000Y-76000000D02*
X186725000Y-74025000D01*
X186725000Y-74025000D02*
X186750000Y-74000000D01*
D23*
X191350000Y-67300000D02*
X191350000Y-67550000D01*
X191350000Y-67550000D02*
X191300000Y-67600000D01*
X191300000Y-67600000D02*
X175050000Y-67600000D01*
X175050000Y-67600000D02*
X174950000Y-67500000D01*
X174950000Y-67500000D02*
X174950000Y-67500000D01*
X204500000Y-77500000D02*
X204500000Y-82100000D01*
X204500000Y-82100000D02*
X201450000Y-85150000D01*
X201450000Y-85150000D02*
X201050000Y-85150000D01*
X201050000Y-85150000D02*
X201050000Y-85150000D01*
X200600000Y-87050000D02*
X200600000Y-91950000D01*
X200600000Y-91950000D02*
X200450000Y-92100000D01*
X200450000Y-92100000D02*
X178350000Y-92100000D01*
X178350000Y-92100000D02*
X178200000Y-91950000D01*
X178200000Y-91950000D02*
X178200000Y-80450000D01*
X178200000Y-80450000D02*
X178050000Y-80300000D01*
X178050000Y-80300000D02*
X173600000Y-80300000D01*
X173600000Y-80300000D02*
X173450000Y-80150000D01*
X173450000Y-80150000D02*
X173450000Y-75850000D01*
X173450000Y-75850000D02*
X173300000Y-75700000D01*
X173300000Y-75700000D02*
X170400000Y-75700000D01*
D22*
X183950000Y-80250000D02*
X183950000Y-80250000D01*
X183950000Y-77750000D02*
X183950000Y-80250000D01*
X187349999Y-77549997D02*
X184150000Y-77550000D01*
X187549988Y-77350008D02*
X187349999Y-77549997D01*
X187549988Y-74623614D02*
X187549988Y-77350008D01*
X187777001Y-74396601D02*
X187549988Y-74623614D01*
X187777001Y-70872999D02*
X187777001Y-74396601D01*
X188600000Y-70050000D02*
X187777001Y-70872999D01*
X192625000Y-70050000D02*
X188600000Y-70050000D01*
X184150000Y-77550000D02*
X183950000Y-77750000D01*
X184550000Y-80650000D02*
X184550000Y-80650000D01*
X187976999Y-74800487D02*
X187976998Y-77526882D01*
X188204011Y-74573475D02*
X187976999Y-74800487D01*
X187976998Y-77526882D02*
X187526870Y-77977010D01*
X184672990Y-77977010D02*
X184550000Y-78100000D01*
X192625000Y-70700000D02*
X188600000Y-70700000D01*
X188204012Y-71095988D02*
X188204011Y-74573475D01*
X187526870Y-77977010D02*
X184672990Y-77977010D01*
X188600000Y-70700000D02*
X188204012Y-71095988D01*
X184550000Y-78100000D02*
X184550000Y-80650000D01*
D23*
X188422989Y-74923025D02*
X188606021Y-74739992D01*
X186087807Y-78379019D02*
X187693390Y-78379019D01*
X185550000Y-79800000D02*
X185550000Y-78916826D01*
X185550000Y-78916826D02*
X186087807Y-78379019D01*
X188422989Y-77649419D02*
X188422989Y-74923025D01*
X188606021Y-74739992D02*
X188606022Y-71993978D01*
X188606022Y-71993978D02*
X189250000Y-71350000D01*
X189250000Y-71350000D02*
X192700000Y-71350000D01*
X187693390Y-78379019D02*
X188422989Y-77649419D01*
X189550000Y-72000000D02*
X192750000Y-72000000D01*
X188983032Y-72566968D02*
X189550000Y-72000000D01*
X188800000Y-77805582D02*
X188800000Y-75079187D01*
X187849553Y-78756030D02*
X188800000Y-77805582D01*
X186243970Y-78756030D02*
X187849553Y-78756030D01*
X186100000Y-78900000D02*
X186243970Y-78756030D01*
X186100000Y-80050000D02*
X186100000Y-78900000D01*
X185800000Y-80350000D02*
X186100000Y-80050000D01*
X185150000Y-80350000D02*
X185800000Y-80350000D01*
X185100000Y-80300000D02*
X185150000Y-80350000D01*
X188800000Y-75079187D02*
X188983031Y-74896154D01*
X188983031Y-74896154D02*
X188983032Y-72566968D01*
X185100000Y-80250000D02*
X185100000Y-80300000D01*
X200450000Y-78400000D02*
X198700000Y-78400000D01*
X200650000Y-78600000D02*
X200450000Y-78400000D01*
X200650000Y-82200000D02*
X200650000Y-78600000D01*
X200250000Y-82600000D02*
X200650000Y-82200000D01*
X191950000Y-82600000D02*
X200250000Y-82600000D01*
X191600000Y-82250000D02*
X191950000Y-82600000D01*
X191600000Y-79150000D02*
X191600000Y-82250000D01*
X191150000Y-78700000D02*
X191600000Y-79150000D01*
X188600000Y-78700000D02*
X191150000Y-78700000D01*
X179300000Y-70100000D02*
X179300000Y-72750000D01*
X179300000Y-72750000D02*
X179150000Y-72900000D01*
X179150000Y-72900000D02*
X179000000Y-73050000D01*
X179000000Y-73050000D02*
X178950000Y-73100000D01*
X178950000Y-73100000D02*
X173200000Y-73100000D01*
X172572999Y-72472999D02*
X172572999Y-65172999D01*
X173200000Y-73100000D02*
X172572999Y-72472999D01*
X172572999Y-65172999D02*
X172600000Y-65145998D01*
X172600000Y-65145998D02*
X172600000Y-64700000D01*
X172600000Y-64700000D02*
X172950000Y-64350000D01*
X172950000Y-64350000D02*
X177000000Y-64350000D01*
X177000000Y-64350000D02*
X180000000Y-64350000D01*
X180000000Y-64350000D02*
X180700000Y-63650000D01*
X180700000Y-63650000D02*
X180700000Y-60350000D01*
X180700000Y-60350000D02*
X180700000Y-58900000D01*
X180700000Y-58900000D02*
X181150000Y-58450000D01*
X181150000Y-58450000D02*
X192250000Y-58450000D01*
X192250000Y-58450000D02*
X192400000Y-58300000D01*
X192400000Y-58300000D02*
X192400000Y-54900000D01*
X180950000Y-71550000D02*
X179950000Y-71550000D01*
X179950000Y-71550000D02*
X179750000Y-71750000D01*
X179750000Y-71750000D02*
X179750000Y-72900000D01*
X179750000Y-72900000D02*
X179172991Y-73477009D01*
X179172991Y-73477009D02*
X173043837Y-73477009D01*
X173043837Y-73477009D02*
X172195989Y-72629161D01*
X172195989Y-72629161D02*
X172195989Y-64304011D01*
X172195989Y-64304011D02*
X172550000Y-63950000D01*
X172550000Y-63950000D02*
X173750000Y-63950000D01*
X173750000Y-63950000D02*
X179700000Y-63950000D01*
X179700000Y-63950000D02*
X180200000Y-63450000D01*
X180200000Y-63450000D02*
X180200000Y-58650000D01*
X180200000Y-58650000D02*
X180800000Y-58050000D01*
X180800000Y-58050000D02*
X184150000Y-58050000D01*
X184150000Y-58050000D02*
X186500000Y-58050000D01*
X186500000Y-58050000D02*
X189650000Y-58050000D01*
X189650000Y-58050000D02*
X189900000Y-57800000D01*
X189900000Y-57800000D02*
X189900000Y-54900000D01*
X180650000Y-71050000D02*
X181500000Y-71050000D01*
X181500000Y-71050000D02*
X181550000Y-71100000D01*
X181550000Y-71100000D02*
X181550000Y-72250000D01*
X181550000Y-72250000D02*
X181400000Y-72400000D01*
X181400000Y-72400000D02*
X181000000Y-72400000D01*
X181000000Y-72400000D02*
X179500000Y-73900000D01*
X179500000Y-73900000D02*
X178000000Y-73900000D01*
X178000000Y-73900000D02*
X174900000Y-73900000D01*
X172933656Y-73900000D02*
X171818980Y-72785324D01*
X174900000Y-73900000D02*
X172933656Y-73900000D01*
X171818979Y-72785323D02*
X171818979Y-64131021D01*
X171818980Y-72785324D02*
X171818979Y-72785323D01*
X171818979Y-64131021D02*
X172377010Y-63572990D01*
X172377010Y-63572990D02*
X179327010Y-63572990D01*
X179327010Y-63572990D02*
X179750000Y-63150000D01*
X179750000Y-63150000D02*
X179750000Y-58450000D01*
X179750000Y-58450000D02*
X180550000Y-57650000D01*
X180550000Y-57650000D02*
X184700000Y-57650000D01*
X184700000Y-57650000D02*
X184900000Y-57450000D01*
X184900000Y-57450000D02*
X184900000Y-54950000D01*
X181150000Y-68900000D02*
X181850000Y-68900000D01*
X181850000Y-68900000D02*
X182050000Y-69100000D01*
X182050000Y-69100000D02*
X182050000Y-72900000D01*
X182050000Y-72900000D02*
X180600000Y-74350000D01*
X180600000Y-74350000D02*
X169400000Y-74350000D01*
X169400000Y-74350000D02*
X169002010Y-73952010D01*
X169002010Y-73952010D02*
X169002010Y-63497990D01*
X169002010Y-63497990D02*
X169304020Y-63195980D01*
X169304020Y-63195980D02*
X178754020Y-63195980D01*
X178754020Y-63195980D02*
X179300000Y-62650000D01*
X179300000Y-62650000D02*
X179300000Y-61200000D01*
X179300000Y-61200000D02*
X179300000Y-58150000D01*
X179300000Y-58150000D02*
X180200000Y-57250000D01*
X180200000Y-57250000D02*
X181200000Y-57250000D01*
X181200000Y-57250000D02*
X182000000Y-57250000D01*
X182000000Y-57250000D02*
X182250000Y-57000000D01*
X182250000Y-57000000D02*
X182250000Y-54850000D01*
X173050000Y-66500000D02*
X173050000Y-65100000D01*
X173050000Y-65100000D02*
X173400000Y-64750000D01*
X173400000Y-64750000D02*
X181550000Y-64750000D01*
X181550000Y-64750000D02*
X181650000Y-64650000D01*
X181650000Y-64650000D02*
X181650000Y-60750000D01*
X181650000Y-60750000D02*
X181650000Y-60750000D01*
X184850000Y-66850000D02*
X179950000Y-66850000D01*
X179950000Y-66850000D02*
X179800000Y-66700000D01*
X179800000Y-66700000D02*
X179800000Y-66500000D01*
X179800000Y-66500000D02*
X179800000Y-66500000D01*
X184200000Y-74750000D02*
X182950000Y-74750000D01*
X182950000Y-74750000D02*
X182800000Y-74900000D01*
X182800000Y-74900000D02*
X182800000Y-80250000D01*
X182800000Y-80250000D02*
X182950000Y-80400000D01*
X182950000Y-80400000D02*
X183600000Y-81050000D01*
X183600000Y-81050000D02*
X183950000Y-81400000D01*
X183950000Y-81400000D02*
X187200000Y-81400000D01*
X187200000Y-81400000D02*
X187350000Y-81550000D01*
X187350000Y-81550000D02*
X187350000Y-82150000D01*
X187350000Y-82150000D02*
X187550000Y-82350000D01*
X189900000Y-82350000D02*
X189900000Y-82400000D01*
X187550000Y-82350000D02*
X189900000Y-82350000D01*
X189900000Y-82400000D02*
X190800000Y-83300000D01*
X190800000Y-83300000D02*
X191350000Y-83850000D01*
X191350000Y-83850000D02*
X201850000Y-83850000D01*
X201850000Y-83850000D02*
X203400000Y-82300000D01*
X203400000Y-82300000D02*
X203400000Y-61300000D01*
X203400000Y-61300000D02*
X203300000Y-61200000D01*
X203300000Y-61200000D02*
X199200000Y-61200000D01*
X199200000Y-61200000D02*
X198950000Y-60950000D01*
X198950000Y-60950000D02*
X198950000Y-60200000D01*
X198950000Y-60200000D02*
X198950000Y-60200000D01*
D24*
X191175000Y-82456800D02*
X191693200Y-82975000D01*
X191175000Y-80656800D02*
X191175000Y-82456800D01*
X190443200Y-79925000D02*
X191175000Y-80656800D01*
X187475000Y-79925000D02*
X190443200Y-79925000D01*
X191693200Y-82975000D02*
X200906800Y-82975000D01*
X200906800Y-82975000D02*
X201081258Y-82800542D01*
X201081258Y-82800542D02*
X201081258Y-80750542D01*
X201081258Y-80750542D02*
X201081258Y-78718742D01*
X201081258Y-78718742D02*
X201300000Y-78500000D01*
X201300000Y-78500000D02*
X201650000Y-78500000D01*
X201650000Y-78500000D02*
X201650000Y-78500000D01*
X190725000Y-82643200D02*
X191506800Y-83425000D01*
X190725000Y-80843200D02*
X190725000Y-82643200D01*
X190256800Y-80375000D02*
X190725000Y-80843200D01*
X188275000Y-80375000D02*
X190256800Y-80375000D01*
X188050000Y-80600000D02*
X188275000Y-80375000D01*
X191506800Y-83425000D02*
X201093200Y-83425000D01*
X201093200Y-83425000D02*
X201531258Y-82986942D01*
X201531258Y-82986942D02*
X201531258Y-80936942D01*
X201531258Y-80936942D02*
X201632360Y-80835840D01*
X201632360Y-80835840D02*
X201632360Y-80817640D01*
X201632360Y-80817640D02*
X201750000Y-80700000D01*
X201750000Y-80700000D02*
X201900000Y-80700000D01*
X201900000Y-80700000D02*
X201900000Y-80700000D01*
D23*
X185150000Y-89600000D02*
X185150000Y-89600000D01*
X182550000Y-81150000D02*
X182450000Y-81250000D01*
X182450000Y-81250000D02*
X182450000Y-89400000D01*
X182650000Y-89600000D02*
X185150000Y-89600000D01*
X182450000Y-89400000D02*
X182650000Y-89600000D01*
X183400000Y-81700000D02*
X183400000Y-88650000D01*
X183400000Y-88650000D02*
X183700000Y-88950000D01*
X183700000Y-88950000D02*
X186150000Y-88950000D01*
X186150000Y-88950000D02*
X186600000Y-88950000D01*
X186600000Y-88950000D02*
X186900000Y-89250000D01*
X186900000Y-89250000D02*
X187200000Y-89550000D01*
X187200000Y-89550000D02*
X187200000Y-89750000D01*
X187200000Y-89750000D02*
X187200000Y-89750000D01*
X193450000Y-91250000D02*
X193450000Y-91250000D01*
X193250000Y-88550000D02*
X193450000Y-88750000D01*
X193450000Y-88750000D02*
X193450000Y-91250000D01*
X184400000Y-88550000D02*
X193250000Y-88550000D01*
X184150000Y-88300000D02*
X184400000Y-88550000D01*
X184150000Y-82100000D02*
X184150000Y-88300000D01*
M02*
