M48
; DRILL file {KiCad (5.1.7)-1} date 12/09/20 20:37:34
; FORMAT={3:3/ absolute / metric / suppress leading zeros}
; #@! TF.CreationDate,2020-12-09T20:37:34+01:00
; #@! TF.GenerationSoftware,Kicad,Pcbnew,(5.1.7)-1
FMAT,2
METRIC,TZ
T1C0.200
T2C0.400
T3C0.500
T4C0.600
T5C0.650
T6C0.950
T7C1.000
T8C1.200
T9C3.200
%
G90
G05
T1
X173050Y-66500
X174350Y-67200
X174950Y-67500
X175100Y-74850
X177150Y-66500
X177150Y-84750
X177850Y-72450
X178500Y-70550
X178600Y-74900
X179300Y-70100
X179550Y-91200
X179800Y-66500
X179800Y-74850
X180400Y-66050
X180500Y-76300
X180650Y-71050
X180950Y-71550
X181150Y-68900
X181650Y-60750
X182550Y-81150
X183400Y-81700
X183950Y-80250
X184150Y-82100
X184200Y-70600
X184200Y-74750
X184500Y-65900
X184550Y-80650
X184850Y-66850
X184950Y-69450
X185050Y-74800
X185100Y-80250
X185150Y-89600
X185200Y-73250
X185550Y-79800
X185750Y-83100
X185900Y-87700
X186450Y-66800
X187200Y-89750
X187475Y-79925
X188050Y-80600
X188550Y-79400
X188600Y-78700
X189200Y-81650
X189450Y-69400
X189550Y-75112
X190750Y-57600
X191200Y-78200
X191250Y-62400
X191350Y-67300
X191750Y-59100
X192550Y-91200
X192800Y-67350
X193450Y-91250
X193950Y-87700
X194300Y-73500
X194600Y-62300
X195050Y-57200
X195150Y-68850
X195400Y-67900
X197850Y-63100
X198650Y-74650
X198950Y-60200
X199350Y-63100
X199400Y-67900
X199750Y-91200
X200600Y-87050
X201050Y-85150
X201650Y-78500
X201800Y-60200
X201900Y-80700
X204500Y-77500
X204750Y-75750
X205200Y-73850
X205350Y-66250
T2
X173150Y-61700
X176300Y-61700
X179100Y-84000
X179100Y-85900
X179200Y-84950
X179550Y-86700
X179700Y-77600
X179750Y-83400
X180350Y-78200
X201050Y-67350
X202300Y-77150
T3
X171800Y-56500
X172503Y-54803
X172503Y-58197
X174200Y-54100
X174200Y-58900
X175897Y-54803
X175897Y-58197
X176600Y-56500
X171800Y-87500
X172503Y-85803
X172503Y-89197
X174200Y-85100
X174200Y-89900
X175897Y-85803
X175897Y-89197
X176600Y-87500
X202800Y-56500
X203503Y-54803
X203503Y-58197
X205200Y-54100
X205200Y-58900
X206897Y-54803
X206897Y-58197
X207600Y-56500
X202800Y-87500
X203503Y-85803
X203503Y-89197
X205200Y-85100
X205200Y-89900
X206897Y-85803
X206897Y-89197
X207600Y-87500
T6
X170400Y-65700
X170400Y-68200
X170400Y-70700
X170400Y-73200
X170400Y-75700
X170400Y-78200
T7
X182260Y-54900
X184800Y-54900
X187340Y-54900
X189880Y-54900
X192420Y-54900
X194960Y-54900
X197500Y-54900
X193620Y-78400
X193620Y-80940
X196160Y-78400
X196160Y-80940
X198700Y-78400
X198700Y-80940
T8
X208500Y-61100
X208500Y-64600
X208500Y-68100
X208500Y-71600
T9
X174200Y-56500
X174200Y-87500
X205200Y-56500
X205200Y-87500
T4
G00X208850Y-75025
M15
G01X209550Y-75025
M16
G05
G00X208850Y-83375
M15
G01X209550Y-83375
M16
G05
T5
G00X206100Y-76975
M15
G01X206300Y-76975
M16
G05
G00X206100Y-81425
M15
G01X206300Y-81425
M16
G05
T0
M30
